<mxfile host="Electron" modified="2024-05-25T11:12:04.301Z" agent="Mozilla/5.0 (Windows NT 10.0; Win64; x64) AppleWebKit/537.36 (KHTML, like Gecko) draw.io/24.1.0 Chrome/120.0.6099.109 Electron/28.1.0 Safari/537.36" etag="tZv4tvewXytz7nKym0TY" version="24.1.0" type="device">
  <diagram name="Página-1" id="SljQJArFGCdJjbabZRCC">
    <mxGraphModel dx="989" dy="582" grid="1" gridSize="10" guides="1" tooltips="1" connect="1" arrows="1" fold="1" page="1" pageScale="1" pageWidth="1169" pageHeight="827" math="0" shadow="0">
      <root>
        <mxCell id="0" />
        <mxCell id="1" parent="0" />
        <mxCell id="OMWsh3rDtd7YygQzvBML-5" style="edgeStyle=orthogonalEdgeStyle;rounded=0;orthogonalLoop=1;jettySize=auto;html=1;exitX=0.5;exitY=0.5;exitDx=0;exitDy=0;exitPerimeter=0;entryX=0;entryY=0.5;entryDx=0;entryDy=0;" edge="1" parent="1" source="OMWsh3rDtd7YygQzvBML-1" target="OMWsh3rDtd7YygQzvBML-4">
          <mxGeometry relative="1" as="geometry" />
        </mxCell>
        <mxCell id="OMWsh3rDtd7YygQzvBML-1" value="Usuario" style="shape=umlActor;verticalLabelPosition=bottom;verticalAlign=top;html=1;outlineConnect=0;" vertex="1" parent="1">
          <mxGeometry x="420" y="180" width="30" height="60" as="geometry" />
        </mxCell>
        <mxCell id="OMWsh3rDtd7YygQzvBML-4" value="Localizar&lt;div&gt;mercancía&lt;/div&gt;" style="ellipse;whiteSpace=wrap;html=1;" vertex="1" parent="1">
          <mxGeometry x="535" y="160" width="100" height="50" as="geometry" />
        </mxCell>
        <mxCell id="OMWsh3rDtd7YygQzvBML-17" style="edgeStyle=orthogonalEdgeStyle;rounded=0;orthogonalLoop=1;jettySize=auto;html=1;exitX=0.5;exitY=0.5;exitDx=0;exitDy=0;exitPerimeter=0;entryX=0;entryY=0.5;entryDx=0;entryDy=0;" edge="1" parent="1" source="OMWsh3rDtd7YygQzvBML-6" target="OMWsh3rDtd7YygQzvBML-9">
          <mxGeometry relative="1" as="geometry" />
        </mxCell>
        <mxCell id="OMWsh3rDtd7YygQzvBML-18" style="edgeStyle=orthogonalEdgeStyle;rounded=0;orthogonalLoop=1;jettySize=auto;html=1;exitX=0.5;exitY=0.5;exitDx=0;exitDy=0;exitPerimeter=0;entryX=0;entryY=0.5;entryDx=0;entryDy=0;" edge="1" parent="1" source="OMWsh3rDtd7YygQzvBML-6" target="OMWsh3rDtd7YygQzvBML-10">
          <mxGeometry relative="1" as="geometry" />
        </mxCell>
        <mxCell id="OMWsh3rDtd7YygQzvBML-19" style="edgeStyle=orthogonalEdgeStyle;rounded=0;orthogonalLoop=1;jettySize=auto;html=1;exitX=0.5;exitY=0.5;exitDx=0;exitDy=0;exitPerimeter=0;entryX=0;entryY=0.5;entryDx=0;entryDy=0;" edge="1" parent="1" source="OMWsh3rDtd7YygQzvBML-6" target="OMWsh3rDtd7YygQzvBML-13">
          <mxGeometry relative="1" as="geometry" />
        </mxCell>
        <mxCell id="OMWsh3rDtd7YygQzvBML-20" style="edgeStyle=orthogonalEdgeStyle;rounded=0;orthogonalLoop=1;jettySize=auto;html=1;exitX=0.5;exitY=0.5;exitDx=0;exitDy=0;exitPerimeter=0;entryX=0;entryY=0.5;entryDx=0;entryDy=0;" edge="1" parent="1" source="OMWsh3rDtd7YygQzvBML-6" target="OMWsh3rDtd7YygQzvBML-16">
          <mxGeometry relative="1" as="geometry" />
        </mxCell>
        <mxCell id="OMWsh3rDtd7YygQzvBML-21" style="edgeStyle=orthogonalEdgeStyle;rounded=0;orthogonalLoop=1;jettySize=auto;html=1;exitX=0.5;exitY=0.5;exitDx=0;exitDy=0;exitPerimeter=0;entryX=1;entryY=0.5;entryDx=0;entryDy=0;" edge="1" parent="1" source="OMWsh3rDtd7YygQzvBML-6" target="OMWsh3rDtd7YygQzvBML-11">
          <mxGeometry relative="1" as="geometry" />
        </mxCell>
        <mxCell id="OMWsh3rDtd7YygQzvBML-22" style="edgeStyle=orthogonalEdgeStyle;rounded=0;orthogonalLoop=1;jettySize=auto;html=1;exitX=0.5;exitY=0.5;exitDx=0;exitDy=0;exitPerimeter=0;entryX=1;entryY=0.5;entryDx=0;entryDy=0;" edge="1" parent="1" source="OMWsh3rDtd7YygQzvBML-6" target="OMWsh3rDtd7YygQzvBML-12">
          <mxGeometry relative="1" as="geometry" />
        </mxCell>
        <mxCell id="OMWsh3rDtd7YygQzvBML-23" style="edgeStyle=orthogonalEdgeStyle;rounded=0;orthogonalLoop=1;jettySize=auto;html=1;exitX=0.5;exitY=0.5;exitDx=0;exitDy=0;exitPerimeter=0;entryX=1;entryY=0.5;entryDx=0;entryDy=0;" edge="1" parent="1" source="OMWsh3rDtd7YygQzvBML-6" target="OMWsh3rDtd7YygQzvBML-14">
          <mxGeometry relative="1" as="geometry" />
        </mxCell>
        <mxCell id="OMWsh3rDtd7YygQzvBML-6" value="Empleado" style="shape=umlActor;verticalLabelPosition=bottom;verticalAlign=top;html=1;outlineConnect=0;" vertex="1" parent="1">
          <mxGeometry x="520" y="390" width="30" height="60" as="geometry" />
        </mxCell>
        <mxCell id="OMWsh3rDtd7YygQzvBML-7" value="Iniciar sesión" style="ellipse;whiteSpace=wrap;html=1;" vertex="1" parent="1">
          <mxGeometry x="535" y="220" width="100" height="50" as="geometry" />
        </mxCell>
        <mxCell id="OMWsh3rDtd7YygQzvBML-8" style="edgeStyle=orthogonalEdgeStyle;rounded=0;orthogonalLoop=1;jettySize=auto;html=1;exitX=0.5;exitY=0.5;exitDx=0;exitDy=0;exitPerimeter=0;entryX=0;entryY=0.5;entryDx=0;entryDy=0;" edge="1" parent="1" source="OMWsh3rDtd7YygQzvBML-1" target="OMWsh3rDtd7YygQzvBML-7">
          <mxGeometry relative="1" as="geometry" />
        </mxCell>
        <mxCell id="OMWsh3rDtd7YygQzvBML-9" value="Fichar jornada" style="ellipse;whiteSpace=wrap;html=1;" vertex="1" parent="1">
          <mxGeometry x="615" y="310" width="100" height="50" as="geometry" />
        </mxCell>
        <mxCell id="OMWsh3rDtd7YygQzvBML-10" value="Gestionar&lt;div&gt;planificación&lt;/div&gt;" style="ellipse;whiteSpace=wrap;html=1;" vertex="1" parent="1">
          <mxGeometry x="615" y="368" width="100" height="50" as="geometry" />
        </mxCell>
        <mxCell id="OMWsh3rDtd7YygQzvBML-11" value="Gestionar&lt;div&gt;vehículos&lt;/div&gt;" style="ellipse;whiteSpace=wrap;html=1;" vertex="1" parent="1">
          <mxGeometry x="350" y="313" width="100" height="50" as="geometry" />
        </mxCell>
        <mxCell id="OMWsh3rDtd7YygQzvBML-12" value="Gestionar&lt;div&gt;mercancía&lt;/div&gt;" style="ellipse;whiteSpace=wrap;html=1;" vertex="1" parent="1">
          <mxGeometry x="350" y="370" width="100" height="50" as="geometry" />
        </mxCell>
        <mxCell id="OMWsh3rDtd7YygQzvBML-13" value="Gestionar&lt;div&gt;trabajadores&lt;/div&gt;" style="ellipse;whiteSpace=wrap;html=1;" vertex="1" parent="1">
          <mxGeometry x="615" y="430" width="100" height="50" as="geometry" />
        </mxCell>
        <mxCell id="OMWsh3rDtd7YygQzvBML-14" value="Gestionar&lt;div&gt;cuentas web&lt;/div&gt;" style="ellipse;whiteSpace=wrap;html=1;" vertex="1" parent="1">
          <mxGeometry x="350" y="430" width="100" height="50" as="geometry" />
        </mxCell>
        <mxCell id="OMWsh3rDtd7YygQzvBML-15" value="Gestionar&lt;div&gt;clientes&lt;/div&gt;" style="ellipse;whiteSpace=wrap;html=1;" vertex="1" parent="1">
          <mxGeometry x="350" y="490" width="100" height="50" as="geometry" />
        </mxCell>
        <mxCell id="OMWsh3rDtd7YygQzvBML-16" value="Editar perfil" style="ellipse;whiteSpace=wrap;html=1;" vertex="1" parent="1">
          <mxGeometry x="615" y="490" width="100" height="50" as="geometry" />
        </mxCell>
        <mxCell id="OMWsh3rDtd7YygQzvBML-24" style="edgeStyle=orthogonalEdgeStyle;rounded=0;orthogonalLoop=1;jettySize=auto;html=1;exitX=0.5;exitY=0.5;exitDx=0;exitDy=0;exitPerimeter=0;entryX=1;entryY=0.5;entryDx=0;entryDy=0;" edge="1" parent="1" source="OMWsh3rDtd7YygQzvBML-6" target="OMWsh3rDtd7YygQzvBML-15">
          <mxGeometry relative="1" as="geometry" />
        </mxCell>
      </root>
    </mxGraphModel>
  </diagram>
</mxfile>
